<?xml version="1.0" standalone="no"?>
<!DOCTYPE svg PUBLIC "-//W3C//DTD SVG 20010904//EN"
 "http://www.w3.org/TR/2001/REC-SVG-20010904/DTD/svg10.dtd">
<svg version="1.0" xmlns="http://www.w3.org/2000/svg"
 width="1280.000000pt" height="640.000000pt" viewBox="0 0 1280.000000 640.000000"
 preserveAspectRatio="xMidYMid meet">
<metadata>
Created by potrace 1.15, written by Peter Selinger 2001-2017
</metadata>
<g transform="translate(0.000000,640.000000) scale(0.100000,-0.100000)"
fill="#000000" stroke="none">
<path d="M5188 5710 c-14 -10 -36 -43 -49 -72 -22 -48 -24 -69 -27 -235 l-4
-181 -24 -6 c-14 -4 -29 -4 -34 -1 -6 4 -10 75 -10 164 0 183 -13 241 -64 296
l-33 35 -173 0 -173 0 -31 -34 c-53 -56 -66 -115 -66 -305 l0 -166 48 2 47 2
-50 -9 c-27 -4 -135 -13 -240 -20 -297 -18 -394 -39 -547 -117 -279 -143 -860
-603 -1369 -1083 -80 -76 -161 -145 -181 -153 -55 -23 -166 -44 -348 -67 -562
-70 -1041 -160 -1360 -257 -106 -31 -169 -63 -222 -111 -80 -72 -78 -57 -78
-588 l0 -472 -22 -6 c-13 -3 -46 -6 -74 -6 -92 0 -87 22 -96 -384 -8 -315 -7
-358 7 -379 l16 -24 320 -8 c176 -4 322 -5 324 -3 2 2 2 13 -1 25 -5 17 -16
21 -81 27 -42 3 -129 6 -194 6 -114 0 -119 1 -134 24 -14 21 -15 64 -9 366 8
382 3 360 82 360 22 0 54 3 71 6 l31 7 0 236 0 236 117 -7 c65 -3 584 -7 1155
-7 l1036 -1 84 -36 c346 -148 606 -376 707 -622 47 -115 56 -165 56 -329 l0
-153 777 0 c459 0 787 4 801 9 55 21 112 137 138 281 7 39 13 223 16 458 l5
392 374 0 374 0 0 -600 0 -600 -1390 0 -1390 0 7 28 c5 15 8 81 8 147 -1 139
-22 230 -81 348 -49 96 -84 146 -163 230 -205 218 -523 361 -848 381 l-88 6
80 -15 c510 -96 900 -426 985 -833 15 -73 18 -214 7 -289 l-8 -53 2832 0 2831
0 -7 77 c-34 390 239 770 680 948 102 41 171 60 310 86 l100 19 -123 -5 c-344
-14 -645 -138 -863 -354 -120 -119 -194 -247 -240 -411 -8 -25 -13 -102 -14
-177 l0 -133 -1292 0 -1293 0 0 600 0 599 3038 3 c1670 2 3039 2 3042 0 3 -2
4 -85 3 -185 -3 -206 -21 -336 -58 -409 l-24 -48 144 0 c144 0 180 -4 169 -21
-3 -5 2 -9 11 -9 9 0 13 5 10 11 -4 5 2 32 14 59 74 172 74 649 0 1235 -54
427 -175 1007 -245 1175 l-15 34 33 -38 33 -37 38 15 c22 10 37 23 37 33 0 9
-16 52 -36 95 l-37 77 -36 -16 c-61 -26 -79 -25 -23 1 l53 25 -31 62 c-18 34
-42 72 -55 85 -22 22 -26 23 -57 9 -29 -12 -33 -18 -32 -50 1 -33 0 -35 -16
-20 -9 8 -19 15 -22 15 -3 0 -32 16 -64 35 -286 172 -1242 267 -3069 306 -556
12 -2718 7 -3102 -7 l-173 -7 0 171 c0 194 -15 259 -71 307 -30 25 -33 25
-198 25 -152 0 -171 -2 -193 -20z m55 -487 c-24 -2 -62 -2 -85 0 -24 2 -5 4
42 4 47 0 66 -2 43 -4z m3622 -103 c1560 -34 2489 -122 2779 -266 157 -77 163
-83 210 -177 115 -237 268 -926 312 -1412 l7 -78 -93 6 c-51 4 -1413 7 -3027
7 l-2933 0 0 960 0 960 188 3 c495 7 2157 6 2557 -3z m-2785 -960 l0 -960
-379 0 -379 0 -7 58 c-15 128 -63 257 -111 303 l-26 24 -1305 0 -1305 0 -33
-38 c-42 -49 -81 -154 -97 -262 l-12 -85 -901 -1 c-495 0 -942 -4 -993 -7
l-92 -7 0 29 c0 72 69 157 164 205 171 85 836 219 1471 296 140 17 231 36 282
57 18 8 115 91 215 185 479 448 1018 872 1268 998 138 70 233 90 515 110 284
20 1055 45 1613 53 l112 2 0 -960z m-992 -694 c33 -38 66 -117 77 -186 3 -25
9 -53 11 -62 5 -17 -59 -18 -1240 -18 l-1246 0 0 23 c0 41 30 147 55 196 44
89 -71 81 1191 81 l1122 0 30 -34z m92 -990 c0 -246 -4 -343 -15 -403 -19
-100 -66 -198 -105 -218 -25 -13 -125 -15 -698 -15 -368 0 -671 2 -673 4 -3 3
-2 36 2 73 32 342 -163 627 -568 833 l-98 49 1078 1 1077 0 0 -324z"/>
<path d="M11086 4775 c-73 -26 -81 -41 -84 -168 -3 -128 5 -153 58 -179 27
-14 60 -18 143 -18 l107 0 0 190 0 190 -92 0 c-53 -1 -110 -7 -132 -15z"/>
<path d="M11330 4600 l0 -190 110 0 c180 0 200 19 200 188 0 111 -1 114 -28
142 -37 37 -88 50 -194 50 l-88 0 0 -190z"/>
<path d="M11019 4150 c-66 -11 -104 -34 -195 -116 -93 -84 -125 -143 -145
-263 -15 -87 0 -223 31 -295 27 -64 91 -130 153 -156 60 -27 175 -32 245 -12
37 11 41 16 36 36 -5 21 -1 24 30 30 44 8 48 15 40 66 -6 37 -9 41 -28 35 -42
-13 -106 -17 -151 -10 -66 9 -137 78 -159 155 -32 108 -15 282 33 342 17 20
28 23 93 23 40 0 85 -4 100 -8 24 -8 28 -6 33 20 12 53 12 54 41 43 15 -6 28
-9 29 -8 2 2 6 24 10 50 7 44 5 48 -16 56 -38 14 -130 20 -180 12z"/>
<path d="M6687 4143 c-2 -4 -7 -20 -11 -35 -5 -23 -12 -28 -36 -28 -17 0 -30
-2 -30 -4 0 -3 -45 -172 -100 -376 -55 -204 -100 -378 -100 -386 0 -10 13 -14
49 -14 46 0 49 2 57 33 8 26 15 33 40 35 30 3 32 6 49 83 l18 79 77 0 77 0 30
-112 30 -113 53 -3 52 -3 -6 35 -7 36 46 0 c45 0 45 1 39 28 -4 15 -51 189
-103 387 l-97 360 -61 3 c-34 2 -63 -1 -66 -5z m33 -370 c7 -32 15 -64 17 -70
4 -9 -7 -13 -37 -13 -32 0 -41 3 -37 14 3 7 11 39 18 70 8 31 16 56 20 56 3 0
12 -26 19 -57z"/>
<path d="M7157 4144 c-4 -4 -7 -20 -7 -36 0 -25 -3 -28 -34 -28 -34 0 -35 0
-40 -52 -3 -29 -13 -179 -21 -333 -8 -154 -18 -306 -21 -337 l-6 -58 51 0 51
0 0 35 c0 33 2 35 34 35 42 0 45 10 47 145 1 86 14 193 18 142 1 -14 64 -253
87 -329 4 -13 16 -18 43 -18 34 0 39 3 47 33 8 26 15 33 39 35 30 3 30 4 80
180 48 171 50 176 57 132 3 -25 7 -79 7 -120 1 -41 4 -119 8 -172 l6 -98 49 0
48 0 0 35 c0 34 1 35 38 35 l37 0 -3 78 c-3 42 -12 217 -21 387 l-16 310 -65
0 c-64 0 -64 0 -74 -32 -7 -27 -14 -33 -37 -33 -32 0 -25 17 -101 -251 -23
-82 -45 -146 -49 -143 -4 2 -10 21 -14 42 -3 20 -30 123 -59 227 l-53 190 -60
3 c-32 2 -62 0 -66 -4z m87 -169 c5 -22 4 -26 -4 -15 -5 8 -10 24 -10 34 0 26
6 18 14 -19z"/>
<path d="M7943 4143 c-29 -4 -33 -8 -33 -33 0 -25 -4 -29 -40 -35 l-40 -7 2
-381 3 -382 109 -3 c135 -3 198 13 254 66 22 20 53 49 70 64 16 15 37 43 46
62 23 49 21 147 -4 196 -20 40 -76 90 -100 90 -8 0 6 17 30 37 49 42 70 85 70
143 0 85 -50 150 -134 175 -46 14 -155 17 -233 8z m145 -170 c27 -17 42 -51
42 -98 0 -41 -20 -55 -79 -55 l-41 0 0 90 0 90 28 -6 c15 -4 37 -13 50 -21z
m107 -283 c4 -6 -10 -2 -29 7 -20 10 -36 21 -36 26 0 9 56 -19 65 -33z m-132
-34 c54 -22 87 -70 87 -124 0 -68 -9 -76 -77 -77 l-58 0 -3 108 c-2 71 1 107
8 107 6 0 25 -6 43 -14z"/>
<path d="M8450 4116 c0 -35 -1 -36 -36 -36 l-36 0 4 -302 3 -303 29 -58 c47
-98 147 -143 256 -117 36 9 68 28 125 77 126 108 135 141 135 508 l0 265 -50
0 -50 0 0 -35 c0 -34 -1 -35 -40 -35 l-40 0 0 -272 c0 -282 -7 -347 -38 -350
-58 -5 -95 13 -125 61 -21 35 -22 48 -27 331 l-5 295 -52 3 -53 3 0 -35z"/>
<path d="M9080 4116 c0 -34 -2 -36 -35 -36 l-35 0 0 -390 0 -390 180 0 180 0
0 35 c0 33 2 35 34 35 34 0 35 -1 29 -35 l-6 -35 50 0 c48 0 51 1 59 33 8 26
15 33 40 35 30 3 32 6 49 83 l18 79 77 0 77 0 29 -112 30 -113 53 -3 53 -3 -6
35 -7 36 46 0 c42 0 45 2 40 23 -3 12 -50 186 -104 387 l-98 365 -63 0 c-63 0
-64 0 -72 -32 -7 -28 -13 -33 -38 -33 -24 0 -31 -5 -38 -32 -5 -18 -44 -167
-88 -331 -43 -164 -80 -287 -82 -273 l-3 26 -135 0 -134 0 0 338 1 337 -50 3
-51 3 0 -35z m660 -343 c7 -32 15 -64 17 -70 4 -9 -7 -13 -37 -13 -32 0 -41 3
-37 14 3 7 11 39 18 70 8 31 16 56 20 56 3 0 12 -26 19 -57z"/>
<path d="M10147 4143 c-4 -3 -7 -19 -7 -35 0 -25 -3 -28 -35 -28 l-35 0 0
-390 0 -390 45 0 c45 0 45 0 45 35 0 34 1 35 40 35 l40 0 0 183 0 182 107
-218 107 -218 51 3 c48 3 50 4 53 36 3 29 6 32 38 32 l34 0 0 390 0 390 -45 0
c-45 0 -45 0 -45 -35 0 -34 -1 -35 -40 -35 l-40 0 0 -172 0 -172 -102 207
-102 207 -51 0 c-29 0 -55 -3 -58 -7z m108 -189 c8 -20 15 -39 15 -43 -1 -8
-39 61 -40 72 -1 18 11 4 25 -29z m214 -474 c0 -8 -6 0 -14 19 -8 18 -15 36
-15 40 1 13 29 -45 29 -59z"/>
<path d="M11337 4143 c-4 -3 -7 -19 -7 -35 0 -25 -3 -28 -35 -28 l-35 0 0
-390 0 -390 185 0 185 0 0 35 c0 34 1 35 41 35 l40 0 -3 48 -3 47 -132 3 -133
3 0 94 0 95 80 0 80 0 0 35 c0 34 1 35 40 35 l40 0 0 45 0 45 -120 0 -120 0 0
80 0 79 87 3 87 3 1 30 c0 27 3 30 38 33 l37 3 0 50 0 49 -173 0 c-96 0 -177
-3 -180 -7z"/>
<path d="M4465 4980 c-281 -9 -408 -34 -582 -112 -65 -29 -1317 -1068 -1304
-1081 6 -6 520 -6 1278 -1 1195 9 1270 10 1301 27 19 10 39 32 46 50 20 48 69
961 55 1012 -30 109 -50 115 -341 113 -128 -1 -332 -5 -453 -8z"/>
<path d="M600 2750 c-19 -5 -45 -20 -57 -35 -21 -24 -23 -36 -23 -148 0 -137
8 -159 66 -183 18 -8 58 -14 89 -14 l55 0 0 193 0 193 -47 1 c-27 1 -64 -2
-83 -7z"/>
<path d="M750 2561 l0 -194 70 5 c78 6 115 25 131 66 6 15 9 79 7 144 -4 151
-11 161 -128 168 l-80 5 0 -194z"/>
<path d="M1795 2743 c-125 -15 -247 -41 -345 -73 -443 -145 -737 -461 -790
-850 -11 -77 -7 -200 7 -236 4 -11 30 -14 115 -14 l111 0 -7 48 c-17 125 -18
181 -2 270 33 189 116 344 260 488 200 199 459 316 795 359 l96 12 -105 0
c-58 0 -118 -2 -135 -4z"/>
<path d="M10054 2670 c499 -63 895 -364 990 -752 9 -36 19 -103 23 -148 l6
-81 126 2 c124 1 126 1 129 -21 l4 -23 511 6 c280 4 596 7 701 7 105 0 197 4
204 8 8 6 19 80 32 227 11 120 18 220 16 222 -13 14 -96 23 -203 23 -119 0
-123 -1 -127 -22 -3 -13 -12 -108 -21 -213 -10 -104 -19 -192 -22 -195 -2 -3
-249 -7 -547 -8 l-543 -4 -6 74 c-8 104 -30 180 -82 284 -123 245 -353 435
-658 543 -145 51 -264 71 -442 76 -122 3 -144 2 -91 -5z"/>
<path d="M1870 2654 c-152 -26 -236 -52 -351 -110 -195 -97 -343 -242 -437
-429 -121 -241 -119 -511 5 -761 236 -476 880 -677 1391 -434 159 75 310 202
401 334 45 65 105 197 126 276 25 96 31 258 12 355 -67 356 -336 631 -727 742
-69 20 -113 25 -240 28 -85 2 -166 2 -180 -1z"/>
<path d="M9835 2511 c-515 -84 -877 -489 -852 -956 12 -231 107 -429 286 -597
84 -80 134 -115 237 -166 192 -96 386 -132 598 -111 263 26 479 128 656 309
432 440 301 1129 -268 1415 -159 79 -265 105 -457 110 -82 2 -172 0 -200 -4z"/>
</g>
</svg>
