<?xml version="1.0" standalone="no"?>
<!DOCTYPE svg PUBLIC "-//W3C//DTD SVG 20010904//EN"
 "http://www.w3.org/TR/2001/REC-SVG-20010904/DTD/svg10.dtd">
<svg version="1.0" xmlns="http://www.w3.org/2000/svg"
 width="1280.000000pt" height="654.000000pt" viewBox="0 0 1280.000000 654.000000"
 preserveAspectRatio="xMidYMid meet">
<metadata>
Created by potrace 1.15, written by Peter Selinger 2001-2017
</metadata>
<g transform="translate(0.000000,654.000000) scale(0.100000,-0.100000)"
fill="#000000" stroke="none">
<path d="M4140 4470 l0 -2070 4330 0 4330 0 0 2070 0 2070 -4330 0 -4330 0 0
-2070z"/>
<path d="M2245 5423 c-1497 -103 -1393 -90 -1456 -175 -53 -72 -78 -135 -303
-748 -108 -295 -203 -538 -349 -891 -47 -113 -96 -235 -108 -270 l-22 -64 2
-955 c1 -530 7 -986 12 -1024 11 -84 51 -160 99 -192 48 -31 128 -51 236 -59
l90 -7 13 121 c36 348 159 622 380 842 106 105 206 177 339 244 412 206 942
180 1339 -66 122 -77 288 -238 368 -359 135 -202 213 -437 231 -692 l7 -98
2668 0 2669 0 0 63 c0 85 24 240 53 339 66 226 175 405 356 582 50 49 91 90
91 92 0 2 -1208 4 -2685 4 l-2685 0 -2 1703 -3 1702 -1340 -92z m301 -610 c-3
-76 -9 -400 -12 -720 l-7 -583 -31 -5 c-142 -23 -1852 -215 -1917 -215 -133 0
-169 33 -156 140 3 27 96 290 207 585 111 295 215 577 231 628 37 115 65 166
105 189 44 26 129 34 694 68 278 17 555 35 615 39 61 5 148 9 194 10 l84 1 -7
-137z"/>
<path d="M1605 2096 c-450 -87 -787 -431 -860 -878 -27 -166 -14 -316 40 -488
156 -490 667 -802 1170 -714 416 72 740 367 850 774 32 118 43 291 26 410 -64
434 -385 785 -811 885 -98 23 -320 29 -415 11z"/>
<path d="M9630 2099 c-262 -44 -514 -194 -671 -402 -481 -637 -121 -1544 666
-1681 113 -20 214 -20 331 -1 709 115 1098 869 779 1510 -150 304 -428 509
-770 571 -88 15 -249 17 -335 3z"/>
<path d="M10631 2100 c0 -3 24 -25 52 -49 256 -216 424 -563 444 -918 l6 -103
396 0 396 1 435 153 435 154 0 91 c0 50 -1 221 -3 381 l-2 290 -1080 2 c-594
2 -1080 1 -1079 -2z"/>
</g>
</svg>
