<svg height="374.999991" preserveAspectRatio="xMidYMid meet" viewBox="0 0 375 374.999991" width="375" xmlns="http://www.w3.org/2000/svg" xmlns:xlink="http://www.w3.org/1999/xlink" zoomAndPan="magnify"><clipPath id="a"><path d="m27.34375 24.0625h321v321h-321zm0 0"/></clipPath><clipPath id="b"><path d="m138 135h173v173h-173zm0 0"/></clipPath><clipPath id="c"><path d="m224.839844 114.972656 106.066406 106.066406-106.066406 106.066407-106.066406-106.066407zm0 0"/></clipPath><clipPath id="d"><path d="m224.839844 114.972656 106.066406 106.066406-106.066406 106.066407-106.066406-106.066407zm0 0"/></clipPath><path d="m-37.5-37.499999h450v449.999989h-450z" fill="#fff"/><path d="m-37.5-37.499999h450v449.999989h-450z" fill="#fff"/><g clip-path="url(#a)"><path d="m27.34375 24.0625h321v321h-321zm0 0" fill="#0facd7"/></g><g clip-path="url(#b)"><g clip-path="url(#c)"><g clip-path="url(#d)"><path d="m310.867188 241.078125-.003907-40.082031h-65.972656l-.011719-65.980469-40.074218-.003906-.007813 65.988281-65.980469-.003906v40.085937h65.988282l-.007813 65.980469h40.085937l-.003906-65.980469zm0 0" fill="#fff"/></g></g></g></svg>