<svg height="699" viewBox="0 0 1119.60911 699" width="1119.60911" xmlns="http://www.w3.org/2000/svg"><circle cx="292.60911" cy="213" fill="#f2f2f2" r="213"/><path d="m31.39089 151.64237c0 77.49789 48.6181 140.20819 108.70073 140.20819" fill="#2f2e41" transform="translate(-31.39089 -100.5)"/><path d="m140.09162 291.85056c0-78.36865 54.255-141.78356 121.30372-141.78356" fill="#96f" transform="translate(-31.39089 -100.5)"/><path d="m70.77521 158.66768c0 73.61476 31.00285 133.18288 69.31641 133.18288" fill="#96f" transform="translate(-31.39089 -100.5)"/><path d="m140.09162 291.85056c0-100.13772 62.7103-181.16788 140.20819-181.16788" fill="#2f2e41" transform="translate(-31.39089 -100.5)"/><path d="m117.22379 292.83905s15.41555-.47479 20.06141-3.783 23.713-7.2585 24.86553-1.95278 23.16671 26.38821 5.76263 26.5286-40.43935-2.711-45.07627-5.53549-5.6133-15.25733-5.6133-15.25733z" fill="#a8a8a8" transform="translate(-31.39089 -100.5)"/><path d="m168.224 311.78489c-17.40408.14042-40.43933-2.71094-45.07626-5.53548-3.53126-2.151-4.93843-9.86945-5.40926-13.43043-.32607.014-.51463.02-.51463.02s.97638 12.43276 5.61331 15.2573 27.67217 5.67589 45.07626 5.53547c5.02386-.04052 6.7592-1.82793 6.66391-4.47526-.69798 1.59951-2.61404 2.59825-6.35333 2.6284z" opacity=".2" transform="translate(-31.39089 -100.5)"/><ellipse cx="198.60911" cy="424.5" fill="#3f3d56" rx="187" ry="25.43993"/><ellipse cx="198.60911" cy="424.5" opacity=".1" rx="157" ry="21.35866"/><ellipse cx="836.60911" cy="660.5" fill="#3f3d56" rx="283" ry="38.5"/><ellipse cx="310.60911" cy="645.5" fill="#3f3d56" rx="170" ry="23.12721"/><path d="m494 726.5c90 23 263-30 282-90" fill="none" stroke="#2f2e41" stroke-miterlimit="10" stroke-width="2" transform="translate(-31.39089 -100.5)"/><path d="m341 359.5s130-36 138 80-107 149-17 172" fill="none" stroke="#2f2e41" stroke-miterlimit="10" stroke-width="2" transform="translate(-31.39089 -100.5)"/><path d="m215.40233 637.78332s39.0723-10.82 41.47675 24.04449-32.15951 44.78287-5.10946 51.69566" fill="none" stroke="#2f2e41" stroke-miterlimit="10" stroke-width="2" transform="translate(-31.39089 -100.5)"/><path d="m810.09554 663.73988-7.87754 50.29517s-38.78182 20.60284-11.51335 21.20881 155.73324 0 155.73324 0 24.84461 0-14.54318-21.81478l-7.87756-52.719z" fill="#2f2e41" transform="translate(-31.39089 -100.5)"/><path d="m785.21906 734.69812c6.193-5.51039 16.9989-11.252 16.9989-11.252l7.87756-50.2952 113.9216.10717 7.87756 49.582c9.185 5.08711 14.8749 8.987 18.20362 11.97818 5.05882-1.15422 10.58716-5.44353-18.20362-21.38921l-7.87756-52.719-113.9216 3.02983-7.87752 50.29517s-32.58815 17.31462-16.99894 20.66306z" opacity=".1" transform="translate(-31.39089 -100.5)"/><rect fill="#2f2e41" height="357.51989" rx="18.04568" width="513.25314" x="578.43291" y="212.68859"/><path d="m595.70294 231.77652h478.71308v267.83694h-478.71308z" fill="#3f3d56"/><circle cx="835.05948" cy="223.29299" fill="#f2f2f2" r="3.02983"/><path d="m1123.07694 621.32226v31.34054a18.04341 18.04341 0 0 1 -18.04568 18.04568h-477.16177a18.04341 18.04341 0 0 1 -18.04569-18.04568v-31.34054z" fill="#2f2e41" transform="translate(-31.39089 -100.5)"/><path d="m968.978 667.466v6.06h-326.01v-4.848l.449-1.212 8.035-21.815h310.86z" fill="#2f2e41"/><path d="m1125.828 762.03359c-.59383 2.539-2.83591 5.21743-7.90178 7.75032-18.179 9.08949-55.1429-2.42386-55.1429-2.42386s-28.4804-4.84773-28.4804-17.573a22.72457 22.72457 0 0 1 2.49658-1.48459c7.64294-4.04351 32.98449-14.02122 77.9177.42248a18.73921 18.73921 0 0 1 8.54106 5.59715c1.82082 2.13144 3.24843 4.83506 2.56974 7.7115z" fill="#2f2e41" transform="translate(-31.39089 -100.5)"/><path d="m1125.828 762.03359c-22.251 8.526-42.0843 9.1622-62.43871-4.975-10.26507-7.12617-19.59089-8.88955-26.58979-8.75618 7.64294-4.04351 32.98449-14.02122 77.9177.42248a18.73921 18.73921 0 0 1 8.54106 5.59715c1.82082 2.13149 3.24843 4.83511 2.56974 7.71155z" opacity=".1" transform="translate(-31.39089 -100.5)"/><ellipse cx="1066.53846" cy="654.13477" fill="#f2f2f2" rx="7.87756" ry="2.42386"/><circle cx="835.05948" cy="545.66686" fill="#f2f2f2" r="11.51335"/><path d="m968.978 667.466v6.06h-326.01v-4.848l.449-1.212z" opacity=".1"/><path d="m108.60911 159h208v242h-208z" fill="#2f2e41"/><path d="m87.60911 135h250v86h-250z" fill="#3f3d56"/><path d="m87.60911 237h250v86h-250z" fill="#3f3d56"/><path d="m87.60911 339h250v86h-250z" fill="#3f3d56"/><g fill="#96f"><path d="m271.60911 150h16v16h-16z" opacity=".4"/><path d="m294.60911 150h16v16h-16z" opacity=".8"/><path d="m317.60911 150h16v16h-16z"/><path d="m271.60911 251h16v16h-16z" opacity=".4"/><path d="m294.60911 251h16v16h-16z" opacity=".8"/><path d="m317.60911 251h16v16h-16z"/><path d="m271.60911 352h16v16h-16z" opacity=".4"/><path d="m294.60911 352h16v16h-16z" opacity=".8"/><path d="m317.60911 352h16v16h-16z"/></g><circle cx="316.60911" cy="538" fill="#2f2e41" r="79"/><path d="m280.60911 600h24v43h-24z" fill="#2f2e41"/><path d="m328.60911 600h24v43h-24z" fill="#2f2e41"/><ellipse cx="300.60911" cy="643.5" fill="#2f2e41" rx="20" ry="7.5"/><ellipse cx="348.60911" cy="642.5" fill="#2f2e41" rx="20" ry="7.5"/><circle cx="318.60911" cy="518" fill="#fff" r="27"/><circle cx="318.60911" cy="518" fill="#3f3d56" r="9"/><path d="m271.36733 565.03228c-6.37889-28.56758 14.01185-57.43392 45.544-64.47477s62.2651 10.41 68.644 38.9776-14.51861 39.10379-46.05075 46.14464-61.75836 7.92011-68.13725-20.64747z" fill="#96f" transform="translate(-31.39089 -100.5)"/><ellipse cx="417.21511" cy="611.34365" fill="#2f2e41" rx="39.5" ry="12.40027" transform="matrix(.91933351 -.39347921 .39347921 .91933351 -238.28665 112.98044)"/><ellipse cx="269.21511" cy="664.34365" fill="#2f2e41" rx="39.5" ry="12.40027" transform="matrix(.91933351 -.39347921 .39347921 .91933351 -271.07969 59.02084)"/><path d="m394 661.5c0 7.732-19.90861 23-42 23s-43-14.268-43-22 20.90861-6 43-6 42-2.732 42 5z" fill="#fff" transform="translate(-31.39089 -100.5)"/></svg>