<svg xmlns="http://www.w3.org/2000/svg" xmlns:xlink="http://www.w3.org/1999/xlink" width="375" zoomAndPan="magnify" viewBox="0 0 375 374.999991" height="374.999991" preserveAspectRatio="xMidYMid meet" version="1.0"><defs><g/><clipPath id="id1"><path d="M 27.34375 24.0625 L 348.34375 24.0625 L 348.34375 345.0625 L 27.34375 345.0625 Z M 27.34375 24.0625 " clip-rule="nonzero"/></clipPath><clipPath id="id2"><path d="M 51 141 L 119 141 L 119 209 L 51 209 Z M 51 141 " clip-rule="nonzero"/></clipPath><clipPath id="id3"><path d="M 84.882812 134.09375 L 125.71875 174.929688 L 84.882812 215.765625 L 44.046875 174.929688 Z M 84.882812 134.09375 " clip-rule="nonzero"/></clipPath><clipPath id="id4"><path d="M 84.882812 134.09375 L 125.71875 174.929688 L 84.882812 215.765625 L 44.046875 174.929688 Z M 84.882812 134.09375 " clip-rule="nonzero"/></clipPath></defs><g clip-path="url(#id1)"><path fill="rgb(5.879211%, 67.449951%, 84.309387%)" d="M 27.34375 24.0625 L 348.34375 24.0625 L 348.34375 345.0625 L 27.34375 345.0625 Z M 27.34375 24.0625 " fill-opacity="1" fill-rule="nonzero"/></g><g fill="rgb(100%, 100%, 100%)" fill-opacity="1"><g transform="translate(56.285674, 278.254172)"><g><path d="M 11.832031 -7.851562 L 11.832031 -30.777344 L 14.390625 -30.777344 C 20.992188 -30.777344 25.429688 -25.769531 25.429688 -19.339844 C 25.429688 -12.914062 20.933594 -7.851562 14.390625 -7.851562 Z M 3.414062 -38.683594 L 3.414062 0 L 14.90625 0 C 25.882812 0 34.132812 -8.417969 34.132812 -19.339844 C 34.132812 -30.265625 25.828125 -38.683594 14.90625 -38.683594 Z M 3.414062 -38.683594 "/></g></g></g><g clip-path="url(#id2)"><g clip-path="url(#id3)"><g clip-path="url(#id4)"><path fill="rgb(100%, 100%, 100%)" d="M 118.003906 182.644531 L 118 167.210938 L 92.601562 167.210938 L 92.597656 141.808594 L 77.167969 141.808594 L 77.167969 167.214844 L 51.765625 167.214844 L 51.761719 182.644531 L 77.167969 182.644531 L 77.167969 208.046875 L 92.597656 208.046875 L 92.597656 182.644531 Z M 118.003906 182.644531 " fill-opacity="1" fill-rule="nonzero"/></g></g></g><g fill="rgb(100%, 100%, 100%)" fill-opacity="1"><g transform="translate(95.223229, 276.754172)"><g><path d="M 40.757812 0 L 34.832031 -30.523438 L 26.84375 -30.523438 L 20.511719 -9.113281 L 14.140625 -30.523438 L 6.148438 -30.523438 L 0.222656 0 L 7.632812 0 L 11.222656 -21.050781 L 17.191406 0 L 23.789062 0 L 29.761719 -21.050781 L 33.351562 0 Z M 40.757812 0 "/></g></g></g><g fill="rgb(100%, 100%, 100%)" fill-opacity="1"><g transform="translate(137.997038, 276.754172)"><g><path d="M 20.378906 -6.105469 L 9.425781 -6.105469 L 9.425781 -12.253906 L 19.929688 -12.253906 L 19.929688 -18.359375 L 9.425781 -18.359375 L 9.425781 -24.417969 L 20.378906 -24.417969 L 20.378906 -30.523438 L 2.691406 -30.523438 L 2.691406 0 L 20.378906 0 Z M 20.378906 -6.105469 "/></g></g></g><g fill="rgb(100%, 100%, 100%)" fill-opacity="1"><g transform="translate(162.862596, 276.754172)"><g><path d="M 9.335938 -6.195312 L 9.335938 -24.285156 L 11.355469 -24.285156 C 16.5625 -24.285156 20.066406 -20.335938 20.066406 -15.261719 C 20.066406 -10.191406 16.519531 -6.195312 11.355469 -6.195312 Z M 2.691406 -30.523438 L 2.691406 0 L 11.761719 0 C 20.421875 0 26.933594 -6.644531 26.933594 -15.261719 C 26.933594 -23.878906 20.378906 -30.523438 11.761719 -30.523438 Z M 2.691406 -30.523438 "/></g></g></g><g fill="rgb(100%, 100%, 100%)" fill-opacity="1"><g transform="translate(193.158967, 276.754172)"><g><path d="M 9.425781 0 L 9.425781 -30.523438 L 2.691406 -30.523438 L 2.691406 0 Z M 9.425781 0 "/></g></g></g><g fill="rgb(100%, 100%, 100%)" fill-opacity="1"><g transform="translate(207.073116, 276.754172)"><g><path d="M 24.734375 -10.367188 C 23.476562 -7.675781 20.421875 -5.835938 17.28125 -5.835938 C 12.34375 -5.835938 8.394531 -10.054688 8.394531 -15.261719 C 8.394531 -20.421875 12.34375 -24.6875 17.28125 -24.6875 C 20.378906 -24.6875 23.429688 -22.980469 24.6875 -20.246094 L 32.183594 -20.246094 C 30.121094 -26.484375 24.238281 -30.972656 17.28125 -30.972656 C 8.617188 -30.972656 1.570312 -23.925781 1.570312 -15.261719 C 1.570312 -6.597656 8.617188 0.449219 17.28125 0.449219 C 24.238281 0.449219 30.164062 -4.085938 32.230469 -10.367188 Z M 24.734375 -10.367188 "/></g></g></g><g fill="rgb(100%, 100%, 100%)" fill-opacity="1"><g transform="translate(242.216844, 276.754172)"><g><path d="M 14.542969 -4.757812 C 11.222656 -4.757812 8.347656 -6.417969 8.167969 -10.054688 L 1.347656 -10.054688 C 1.390625 -2.601562 7.542969 0.71875 14.273438 0.71875 C 20.511719 0.71875 26.933594 -1.929688 26.933594 -9.113281 C 26.933594 -20.738281 9.292969 -16.832031 9.292969 -22.265625 C 9.292969 -24.554688 11.941406 -25.453125 13.824219 -25.453125 C 17.191406 -25.453125 19.03125 -24.417969 19.390625 -21.230469 L 25.898438 -21.230469 C 25.675781 -28.1875 20.019531 -30.972656 13.734375 -30.972656 C 8.167969 -30.972656 2.335938 -28.011719 2.335938 -21.726562 C 2.335938 -10.457031 19.976562 -14.273438 19.976562 -8.347656 C 19.976562 -5.609375 16.652344 -4.757812 14.542969 -4.757812 Z M 14.542969 -4.757812 "/></g></g></g></svg>